<svg width="420" height="420" viewBox="0 0 420 420" fill="none" xmlns="http://www.w3.org/2000/svg">
<g id="instagram-1-svgrepo-com 1">
<path id="bg 1" d="M315 26.25H105C61.5076 26.25 26.25 61.5076 26.25 105V315C26.25 358.492 61.5076 393.75 105 393.75H315C358.492 393.75 393.75 358.492 393.75 315V105C393.75 61.5076 358.492 26.25 315 26.25Z" fill="url(#paint0_radial_1_2)"/>
<path id="bg 2" d="M315 26.25H105C61.5076 26.25 26.25 61.5076 26.25 105V315C26.25 358.492 61.5076 393.75 105 393.75H315C358.492 393.75 393.75 358.492 393.75 315V105C393.75 61.5076 358.492 26.25 315 26.25Z" fill="url(#paint1_radial_1_2)"/>
<path id="bg 3" d="M315 26.25H105C61.5076 26.25 26.25 61.5076 26.25 105V315C26.25 358.492 61.5076 393.75 105 393.75H315C358.492 393.75 393.75 358.492 393.75 315V105C393.75 61.5076 358.492 26.25 315 26.25Z" fill="url(#paint2_radial_1_2)"/>
<path id="bulat kecil" d="M301.875 137.812C301.875 148.685 293.06 157.5 282.188 157.5C271.315 157.5 262.5 148.685 262.5 137.812C262.5 126.939 271.315 118.125 282.188 118.125C293.06 118.125 301.875 126.939 301.875 137.812Z" fill="white"/>
<path id="bulat menenagh" fill-rule="evenodd" clip-rule="evenodd" d="M210 275.625C246.243 275.625 275.625 246.243 275.625 210C275.625 173.757 246.243 144.375 210 144.375C173.757 144.375 144.375 173.757 144.375 210C144.375 246.243 173.757 275.625 210 275.625ZM210 249.375C231.747 249.375 249.375 231.747 249.375 210C249.375 188.253 231.747 170.625 210 170.625C188.253 170.625 170.625 188.253 170.625 210C170.625 231.747 188.253 249.375 210 249.375Z" fill="white"/>
<path id="bulat besar" fill-rule="evenodd" clip-rule="evenodd" d="M78.75 204.75C78.75 160.646 78.75 138.593 87.3332 121.748C94.8833 106.93 106.93 94.8833 121.748 87.3332C138.593 78.75 160.646 78.75 204.75 78.75H215.25C259.354 78.75 281.407 78.75 298.251 87.3332C313.069 94.8833 325.117 106.93 332.666 121.748C341.25 138.593 341.25 160.646 341.25 204.75V215.25C341.25 259.354 341.25 281.407 332.666 298.251C325.117 313.069 313.069 325.117 298.251 332.666C281.407 341.25 259.354 341.25 215.25 341.25H204.75C160.646 341.25 138.593 341.25 121.748 332.666C106.93 325.117 94.8833 313.069 87.3332 298.251C78.75 281.407 78.75 259.354 78.75 215.25V204.75ZM204.75 105H215.25C237.736 105 253.02 105.02 264.835 105.986C276.344 106.926 282.229 108.63 286.335 110.722C296.213 115.756 304.244 123.787 309.277 133.665C311.37 137.771 313.075 143.656 314.014 155.165C314.979 166.98 315 182.264 315 204.75V215.25C315 237.736 314.979 253.02 314.014 264.835C313.075 276.344 311.37 282.229 309.277 286.335C304.244 296.213 296.213 304.244 286.335 309.277C282.229 311.37 276.344 313.075 264.835 314.014C253.02 314.979 237.736 315 215.25 315H204.75C182.264 315 166.98 314.979 155.165 314.014C143.656 313.075 137.771 311.37 133.665 309.277C123.787 304.244 115.756 296.213 110.722 286.335C108.63 282.229 106.926 276.344 105.986 264.835C105.02 253.02 105 237.736 105 215.25V204.75C105 182.264 105.02 166.98 105.986 155.165C106.926 143.656 108.63 137.771 110.722 133.665C115.756 123.787 123.787 115.756 133.665 110.722C137.771 108.63 143.656 106.926 155.165 105.986C166.98 105.02 182.264 105 204.75 105Z" fill="white"/>
</g>
<defs>
<radialGradient id="paint0_radial_1_2" cx="0" cy="0" r="1" gradientUnits="userSpaceOnUse" gradientTransform="translate(157.5 301.875) rotate(-55.3758) scale(334.945)">
<stop stop-color="#B13589"/>
<stop offset="0.79309" stop-color="#C62F94"/>
<stop offset="1" stop-color="#8A3AC8"/>
</radialGradient>
<radialGradient id="paint1_radial_1_2" cx="0" cy="0" r="1" gradientUnits="userSpaceOnUse" gradientTransform="translate(144.375 406.875) rotate(-65.1363) scale(296.549)">
<stop stop-color="#E0E8B7"/>
<stop offset="0.444662" stop-color="#FB8A2E"/>
<stop offset="0.71474" stop-color="#E2425C"/>
<stop offset="1" stop-color="#E2425C" stop-opacity="0"/>
</radialGradient>
<radialGradient id="paint2_radial_1_2" cx="0" cy="0" r="1" gradientUnits="userSpaceOnUse" gradientTransform="translate(6.56251 39.375) rotate(-8.1301) scale(510.443 109.178)">
<stop offset="0.156701" stop-color="#406ADC"/>
<stop offset="0.467799" stop-color="#6A45BE"/>
<stop offset="1" stop-color="#6A45BE" stop-opacity="0"/>
</radialGradient>
</defs>
</svg>
