<svg width="584" height="584" viewBox="0 0 584 584" fill="none" xmlns="http://www.w3.org/2000/svg">
<g id="youtube-svgrepo-com 1">
<path id="bg red" d="M536.988 169.104C534.064 158.319 528.368 148.487 520.467 140.585C512.565 132.683 502.733 126.987 491.947 124.064C451.943 113.515 292 113.515 292 113.515C292 113.515 132.057 113.515 92.053 124.064C70.153 129.94 52.925 147.204 47.012 169.104C36.5 209.072 36.5 292 36.5 292C36.5 292 36.5 375.329 47.012 414.895C52.925 436.795 70.1895 454.06 92.053 459.937C132.057 470.485 292 470.485 292 470.485C292 470.485 451.943 470.485 491.947 459.937C502.733 457.013 512.565 451.317 520.467 443.415C528.368 435.513 534.064 425.681 536.988 414.895C547.5 374.928 547.5 292 547.5 292C547.5 292 547.5 209.072 536.988 169.104Z" fill="#FF0000"/>
<path id="icon play" d="M240.645 369.015L373.651 292.438L240.645 215.423V369.015Z" fill="white"/>
</g>
</svg>
